<svg width="24" height="18" viewBox="0 0 24 18" fill="none" xmlns="http://www.w3.org/2000/svg"><path fill="#fff" d="M0 0h24v18H0z"/><path d="M16.464 9.9h2.673a7.213 7.213 0 0 1-4.727 5.877c.923-1.318 1.87-3.271 2.054-5.877Zm-8.928 0c.184 2.605 1.132 4.559 2.055 5.877A7.215 7.215 0 0 1 4.863 9.9h2.673Zm0-1.8H4.863a7.212 7.212 0 0 1 4.728-5.877C8.668 3.541 7.719 5.493 7.536 8.1Zm1.802 0C9.595 4.955 11.154 2.972 12 2.111c.846.86 2.405 2.844 2.664 5.989H9.336h.002Zm0 1.8h5.325c-.26 3.145-1.818 5.13-2.664 5.988-.846-.86-2.407-2.844-2.664-5.988h.003Zm7.11-1.8c-.186-2.605-1.12-4.566-2.041-5.877a7.203 7.203 0 0 1 4.73 5.877h-2.691.002ZM3 9c0 4.962 4.037 9 9 9s9-4.038 9-9c0-4.963-4.037-9-9-9S3 4.037 3 9Z" fill="#000"/></svg>