<svg xmlns="http://www.w3.org/2000/svg" width="240" height="48" viewBox="0 0 240 48" fill="none">
<path fill-rule="evenodd" clip-rule="evenodd" d="M15.7803 5.96967C16.0732 6.26256 16.0732 6.73744 15.7803 7.03033L9.28033 13.5303C8.98744 13.8232 8.51256 13.8232 8.21967 13.5303L4.96967 10.2803C4.67678 9.98744 4.67678 9.51256 4.96967 9.21967C5.26256 8.92678 5.73744 8.92678 6.03033 9.21967L8.75 11.9393L14.7197 5.96967C15.0126 5.67678 15.4874 5.67678 15.7803 5.96967Z" fill="#5826de"/>
<path d="M31.6699 15L30.6787 12.1768H26.7549L25.7637 15H24.4717L28.1084 5.13574H29.3252L32.9619 15H31.6699ZM28.6621 6.72852L27.1172 11.1309H30.3164L28.7715 6.72852H28.6621ZM40.2285 9.88672H39.0391C38.8477 9.15527 38.1982 8.56055 37.1387 8.56055C35.8125 8.56055 34.9785 9.62012 34.9785 11.2881C34.9785 12.9902 35.8262 14.0703 37.1387 14.0703C38.1299 14.0703 38.8203 13.6123 39.0391 12.7783H40.2285C40.0166 14.1318 38.916 15.1299 37.1455 15.1299C35.0811 15.1299 33.7617 13.6328 33.7617 11.2881C33.7617 8.99121 35.0742 7.50098 37.1387 7.50098C38.9297 7.50098 40.0234 8.57422 40.2285 9.88672ZM42.5938 5.72363H43.7695V7.63086H45.4102V8.61523H43.7695V12.7852C43.7695 13.6533 44.0977 14.0225 44.8633 14.0225C45.0752 14.0225 45.1914 14.0156 45.4102 13.9951V14.9863C45.1777 15.0273 44.9521 15.0547 44.7197 15.0547C43.2021 15.0547 42.5938 14.4941 42.5938 13.0859V8.61523H41.4043V7.63086H42.5938V5.72363ZM47.2148 15V7.63086H48.3906V15H47.2148ZM47.8027 6.13379C47.3516 6.13379 46.9824 5.76465 46.9824 5.31348C46.9824 4.8623 47.3516 4.49316 47.8027 4.49316C48.2539 4.49316 48.623 4.8623 48.623 5.31348C48.623 5.76465 48.2539 6.13379 47.8027 6.13379ZM53.6611 15.1299C51.5625 15.1299 50.2637 13.6807 50.2637 11.3154C50.2637 8.94336 51.5625 7.50098 53.6611 7.50098C55.7598 7.50098 57.0586 8.94336 57.0586 11.3154C57.0586 13.6807 55.7598 15.1299 53.6611 15.1299ZM53.6611 14.0703C55.0557 14.0703 55.8418 13.0586 55.8418 11.3154C55.8418 9.56543 55.0557 8.56055 53.6611 8.56055C52.2666 8.56055 51.4805 9.56543 51.4805 11.3154C51.4805 13.0586 52.2666 14.0703 53.6611 14.0703ZM58.9043 15V7.63086H60.0254V8.79297H60.1348C60.5039 7.97949 61.2217 7.50098 62.3496 7.50098C64.0039 7.50098 64.9268 8.47852 64.9268 10.2285V15H63.751V10.5156C63.751 9.18945 63.1904 8.56055 62.0146 8.56055C60.8389 8.56055 60.0801 9.34668 60.0801 10.6387V15H58.9043ZM66.9092 9.64746C66.9092 8.42383 68.0918 7.50098 69.6572 7.50098C71.2021 7.50098 72.2754 8.2666 72.4326 9.47656H71.2705C71.1133 8.88867 70.5391 8.49902 69.6504 8.49902C68.7754 8.49902 68.0918 8.94336 68.0918 9.59961C68.0918 10.1055 68.502 10.4199 69.3701 10.6318L70.5049 10.9053C71.8926 11.2402 72.5625 11.8418 72.5625 12.9014C72.5625 14.2207 71.2842 15.1299 69.6094 15.1299C67.9688 15.1299 66.8408 14.3438 66.7109 13.1201H67.9209C68.1191 13.7422 68.707 14.1387 69.6504 14.1387C70.6416 14.1387 71.3525 13.667 71.3525 12.9902C71.3525 12.4844 70.9697 12.1426 70.1836 11.9512L68.9189 11.6436C67.5381 11.3086 66.9092 10.7139 66.9092 9.64746ZM75.3789 15.0684C74.8936 15.0684 74.4902 14.665 74.4902 14.1797C74.4902 13.6875 74.8936 13.291 75.3789 13.291C75.8711 13.291 76.2676 13.6875 76.2676 14.1797C76.2676 14.665 75.8711 15.0684 75.3789 15.0684ZM75.3789 9.81152C74.8936 9.81152 74.4902 9.4082 74.4902 8.92285C74.4902 8.43066 74.8936 8.03418 75.3789 8.03418C75.8711 8.03418 76.2676 8.43066 76.2676 8.92285C76.2676 9.4082 75.8711 9.81152 75.3789 9.81152ZM86.6377 15.2324C83.958 15.2324 82.2832 13.25 82.2832 10.0713C82.2832 6.88574 83.9512 4.90332 86.6309 4.90332C88.709 4.90332 90.3291 6.20898 90.623 8.10938H89.3721C89.0439 6.83789 87.9912 6.03809 86.6309 6.03809C84.7373 6.03809 83.5479 7.59668 83.5479 10.0713C83.5479 12.5459 84.7373 14.0977 86.6377 14.0977C88.0117 14.0977 89.0576 13.3936 89.3721 12.252H90.623C90.2949 14.0635 88.7363 15.2324 86.6377 15.2324ZM92.6055 15V4.70508H93.7812V15H92.6055ZM96.0918 15V7.63086H97.2676V15H96.0918ZM96.6797 6.13379C96.2285 6.13379 95.8594 5.76465 95.8594 5.31348C95.8594 4.8623 96.2285 4.49316 96.6797 4.49316C97.1309 4.49316 97.5 4.8623 97.5 5.31348C97.5 5.76465 97.1309 6.13379 96.6797 6.13379ZM105.607 9.88672H104.418C104.227 9.15527 103.577 8.56055 102.518 8.56055C101.191 8.56055 100.357 9.62012 100.357 11.2881C100.357 12.9902 101.205 14.0703 102.518 14.0703C103.509 14.0703 104.199 13.6123 104.418 12.7783H105.607C105.396 14.1318 104.295 15.1299 102.524 15.1299C100.46 15.1299 99.1406 13.6328 99.1406 11.2881C99.1406 8.99121 100.453 7.50098 102.518 7.50098C104.309 7.50098 105.402 8.57422 105.607 9.88672ZM108.697 10.8506L111.896 7.63086H113.339L110.167 10.7891L113.551 15H112.054L109.292 11.5479L108.588 12.2041V15H107.412V4.70508H108.588V10.8506H108.697ZM115.69 17.5088H114.809L115.458 13.6191H116.764L115.69 17.5088ZM132.924 15H131.775V7.4668H131.693L128.583 14.9316H127.544L124.434 7.4668H124.352V15H123.203V5.13574H124.632L128.009 13.2979H128.118L131.495 5.13574H132.924V15ZM138.317 15.1299C136.219 15.1299 134.92 13.6807 134.92 11.3154C134.92 8.94336 136.219 7.50098 138.317 7.50098C140.416 7.50098 141.715 8.94336 141.715 11.3154C141.715 13.6807 140.416 15.1299 138.317 15.1299ZM138.317 14.0703C139.712 14.0703 140.498 13.0586 140.498 11.3154C140.498 9.56543 139.712 8.56055 138.317 8.56055C136.923 8.56055 136.137 9.56543 136.137 11.3154C136.137 13.0586 136.923 14.0703 138.317 14.0703ZM149.303 7.63086L146.575 15H145.372L142.645 7.63086H143.902L145.919 13.7012H146.028L148.045 7.63086H149.303ZM153.541 8.54004C152.365 8.54004 151.545 9.40137 151.456 10.707H155.517C155.489 9.40137 154.71 8.54004 153.541 8.54004ZM155.482 13.0928H156.658C156.303 14.3574 155.168 15.1299 153.555 15.1299C151.511 15.1299 150.232 13.6533 150.232 11.3223C150.232 9.00488 151.531 7.50098 153.555 7.50098C155.544 7.50098 156.754 8.91602 156.754 11.2061V11.6572H151.456V11.7119C151.518 13.168 152.331 14.0908 153.582 14.0908C154.532 14.0908 155.175 13.7422 155.482 13.0928ZM159.345 17.5088H158.463L159.112 13.6191H160.418L159.345 17.5088ZM166.386 12.4229H167.63C167.78 13.4551 168.765 14.1113 170.166 14.1113C171.492 14.1113 172.47 13.3936 172.47 12.416C172.47 11.5752 171.854 11.042 170.494 10.7002L169.229 10.3721C167.445 9.9209 166.673 9.11426 166.673 7.71289C166.673 6.03809 168.074 4.90332 170.159 4.90332C172.066 4.90332 173.488 6.03809 173.591 7.63086H172.354C172.183 6.61914 171.349 6.01758 170.118 6.01758C168.806 6.01758 167.938 6.67383 167.938 7.67188C167.938 8.44434 168.478 8.88867 169.838 9.2373L170.87 9.51074C172.914 10.0234 173.734 10.8164 173.734 12.2656C173.734 14.0771 172.306 15.2324 170.05 15.2324C167.958 15.2324 166.516 14.125 166.386 12.4229ZM181.732 9.88672H180.543C180.352 9.15527 179.702 8.56055 178.643 8.56055C177.316 8.56055 176.482 9.62012 176.482 11.2881C176.482 12.9902 177.33 14.0703 178.643 14.0703C179.634 14.0703 180.324 13.6123 180.543 12.7783H181.732C181.521 14.1318 180.42 15.1299 178.649 15.1299C176.585 15.1299 175.266 13.6328 175.266 11.2881C175.266 8.99121 176.578 7.50098 178.643 7.50098C180.434 7.50098 181.527 8.57422 181.732 9.88672ZM183.469 15V7.63086H184.59V8.72461H184.699C184.918 8.00684 185.766 7.50098 186.743 7.50098C186.935 7.50098 187.181 7.51465 187.331 7.53516V8.71094C187.235 8.68359 186.812 8.64258 186.579 8.64258C185.458 8.64258 184.645 9.39453 184.645 10.4336V15H183.469ZM191.624 15.1299C189.525 15.1299 188.227 13.6807 188.227 11.3154C188.227 8.94336 189.525 7.50098 191.624 7.50098C193.723 7.50098 195.021 8.94336 195.021 11.3154C195.021 13.6807 193.723 15.1299 191.624 15.1299ZM191.624 14.0703C193.019 14.0703 193.805 13.0586 193.805 11.3154C193.805 9.56543 193.019 8.56055 191.624 8.56055C190.229 8.56055 189.443 9.56543 189.443 11.3154C189.443 13.0586 190.229 14.0703 191.624 14.0703ZM196.936 15V4.70508H198.111V15H196.936ZM200.463 15V4.70508H201.639V15H200.463Z" fill="#5C5F62"/>
<path fill-rule="evenodd" clip-rule="evenodd" d="M15.7803 33.9697C16.0732 34.2626 16.0732 34.7374 15.7803 35.0303L9.28033 41.5303C8.98744 41.8232 8.51256 41.8232 8.21967 41.5303L4.96967 38.2803C4.67678 37.9874 4.67678 37.5126 4.96967 37.2197C5.26256 36.9268 5.73744 36.9268 6.03033 37.2197L8.75 39.9393L14.7197 33.9697C15.0126 33.6768 15.4874 33.6768 15.7803 33.9697Z" fill="#5826de"/>
<path d="M25.2578 33.1357H28.6416C31.5674 33.1357 33.2969 34.9609 33.2969 38.0645C33.2969 41.1748 31.5742 43 28.6416 43H25.2578V33.1357ZM26.4883 34.2432V41.8926H28.5596C30.7607 41.8926 32.0391 40.4844 32.0391 38.0781C32.0391 35.665 30.7471 34.2432 28.5596 34.2432H26.4883ZM38.2188 36.54C37.043 36.54 36.2227 37.4014 36.1338 38.707H40.1943C40.167 37.4014 39.3877 36.54 38.2188 36.54ZM40.1602 41.0928H41.3359C40.9805 42.3574 39.8457 43.1299 38.2324 43.1299C36.1885 43.1299 34.9102 41.6533 34.9102 39.3223C34.9102 37.0049 36.209 35.501 38.2324 35.501C40.2217 35.501 41.4316 36.916 41.4316 39.2061V39.6572H36.1338V39.7119C36.1953 41.168 37.0088 42.0908 38.2598 42.0908C39.21 42.0908 39.8525 41.7422 40.1602 41.0928ZM49.1562 35.6309L46.4287 43H45.2256L42.498 35.6309H43.7559L45.7725 41.7012H45.8818L47.8984 35.6309H49.1562ZM50.7559 43V35.6309H51.9316V43H50.7559ZM51.3438 34.1338C50.8926 34.1338 50.5234 33.7646 50.5234 33.3135C50.5234 32.8623 50.8926 32.4932 51.3438 32.4932C51.7949 32.4932 52.1641 32.8623 52.1641 33.3135C52.1641 33.7646 51.7949 34.1338 51.3438 34.1338ZM60.2715 37.8867H59.082C58.8906 37.1553 58.2412 36.5605 57.1816 36.5605C55.8555 36.5605 55.0215 37.6201 55.0215 39.2881C55.0215 40.9902 55.8691 42.0703 57.1816 42.0703C58.1729 42.0703 58.8633 41.6123 59.082 40.7783H60.2715C60.0596 42.1318 58.959 43.1299 57.1885 43.1299C55.124 43.1299 53.8047 41.6328 53.8047 39.2881C53.8047 36.9912 55.1172 35.501 57.1816 35.501C58.9727 35.501 60.0664 36.5742 60.2715 37.8867ZM64.9473 36.54C63.7715 36.54 62.9512 37.4014 62.8623 38.707H66.9229C66.8955 37.4014 66.1162 36.54 64.9473 36.54ZM66.8887 41.0928H68.0645C67.709 42.3574 66.5742 43.1299 64.9609 43.1299C62.917 43.1299 61.6387 41.6533 61.6387 39.3223C61.6387 37.0049 62.9375 35.501 64.9609 35.501C66.9502 35.501 68.1602 36.916 68.1602 39.2061V39.6572H62.8623V39.7119C62.9238 41.168 63.7373 42.0908 64.9883 42.0908C65.9385 42.0908 66.5811 41.7422 66.8887 41.0928ZM69.835 37.6475C69.835 36.4238 71.0176 35.501 72.583 35.501C74.1279 35.501 75.2012 36.2666 75.3584 37.4766H74.1963C74.0391 36.8887 73.4648 36.499 72.5762 36.499C71.7012 36.499 71.0176 36.9434 71.0176 37.5996C71.0176 38.1055 71.4277 38.4199 72.2959 38.6318L73.4307 38.9053C74.8184 39.2402 75.4883 39.8418 75.4883 40.9014C75.4883 42.2207 74.21 43.1299 72.5352 43.1299C70.8945 43.1299 69.7666 42.3438 69.6367 41.1201H70.8467C71.0449 41.7422 71.6328 42.1387 72.5762 42.1387C73.5674 42.1387 74.2783 41.667 74.2783 40.9902C74.2783 40.4844 73.8955 40.1426 73.1094 39.9512L71.8447 39.6436C70.4639 39.3086 69.835 38.7139 69.835 37.6475ZM78.3047 43.0684C77.8193 43.0684 77.416 42.665 77.416 42.1797C77.416 41.6875 77.8193 41.291 78.3047 41.291C78.7969 41.291 79.1934 41.6875 79.1934 42.1797C79.1934 42.665 78.7969 43.0684 78.3047 43.0684ZM78.3047 37.8115C77.8193 37.8115 77.416 37.4082 77.416 36.9229C77.416 36.4307 77.8193 36.0342 78.3047 36.0342C78.7969 36.0342 79.1934 36.4307 79.1934 36.9229C79.1934 37.4082 78.7969 37.8115 78.3047 37.8115ZM85.5918 33.1357H88.9756C91.9014 33.1357 93.6309 34.9609 93.6309 38.0645C93.6309 41.1748 91.9082 43 88.9756 43H85.5918V33.1357ZM86.8223 34.2432V41.8926H88.8936C91.0947 41.8926 92.373 40.4844 92.373 38.0781C92.373 35.665 91.0811 34.2432 88.8936 34.2432H86.8223ZM98.5527 36.54C97.377 36.54 96.5566 37.4014 96.4678 38.707H100.528C100.501 37.4014 99.7217 36.54 98.5527 36.54ZM100.494 41.0928H101.67C101.314 42.3574 100.18 43.1299 98.5664 43.1299C96.5225 43.1299 95.2441 41.6533 95.2441 39.3223C95.2441 37.0049 96.543 35.501 98.5664 35.501C100.556 35.501 101.766 36.916 101.766 39.2061V39.6572H96.4678V39.7119C96.5293 41.168 97.3428 42.0908 98.5938 42.0908C99.5439 42.0908 100.187 41.7422 100.494 41.0928ZM103.44 37.6475C103.44 36.4238 104.623 35.501 106.188 35.501C107.733 35.501 108.807 36.2666 108.964 37.4766H107.802C107.645 36.8887 107.07 36.499 106.182 36.499C105.307 36.499 104.623 36.9434 104.623 37.5996C104.623 38.1055 105.033 38.4199 105.901 38.6318L107.036 38.9053C108.424 39.2402 109.094 39.8418 109.094 40.9014C109.094 42.2207 107.815 43.1299 106.141 43.1299C104.5 43.1299 103.372 42.3438 103.242 41.1201H104.452C104.65 41.7422 105.238 42.1387 106.182 42.1387C107.173 42.1387 107.884 41.667 107.884 40.9902C107.884 40.4844 107.501 40.1426 106.715 39.9512L105.45 39.6436C104.069 39.3086 103.44 38.7139 103.44 37.6475ZM112.293 38.8506L115.492 35.6309H116.935L113.763 38.7891L117.146 43H115.649L112.888 39.5479L112.184 40.2041V43H111.008V32.7051H112.184V38.8506H112.293ZM119.033 33.7236H120.209V35.6309H121.85V36.6152H120.209V40.7852C120.209 41.6533 120.537 42.0225 121.303 42.0225C121.515 42.0225 121.631 42.0156 121.85 41.9951V42.9863C121.617 43.0273 121.392 43.0547 121.159 43.0547C119.642 43.0547 119.033 42.4941 119.033 41.0859V36.6152H117.844V35.6309H119.033V33.7236ZM126.546 43.1299C124.447 43.1299 123.148 41.6807 123.148 39.3154C123.148 36.9434 124.447 35.501 126.546 35.501C128.645 35.501 129.943 36.9434 129.943 39.3154C129.943 41.6807 128.645 43.1299 126.546 43.1299ZM126.546 42.0703C127.94 42.0703 128.727 41.0586 128.727 39.3154C128.727 37.5654 127.94 36.5605 126.546 36.5605C125.151 36.5605 124.365 37.5654 124.365 39.3154C124.365 41.0586 125.151 42.0703 126.546 42.0703ZM135.378 35.501C137.258 35.501 138.475 36.998 138.475 39.3154C138.475 41.6191 137.251 43.1299 135.378 43.1299C134.325 43.1299 133.478 42.6719 133.074 41.8926H132.965V45.4609H131.789V35.6309H132.91V36.8613H133.02C133.491 36.0137 134.373 35.501 135.378 35.501ZM135.098 42.0703C136.451 42.0703 137.258 41.0381 137.258 39.3154C137.258 37.5928 136.451 36.5605 135.104 36.5605C133.771 36.5605 132.931 37.6201 132.931 39.3154C132.931 41.0039 133.771 42.0703 135.098 42.0703ZM140.929 45.5088H140.047L140.696 41.6191H142.002L140.929 45.5088ZM152.235 43H151.005V34.2432H147.826V33.1357H155.414V34.2432H152.235V43ZM157.998 42.0977C159.208 42.0977 160.104 41.3047 160.104 40.252V39.5752L158.121 39.7051C157 39.7803 156.508 40.1699 156.508 40.9082C156.508 41.6602 157.144 42.0977 157.998 42.0977ZM157.779 43.1299C156.351 43.1299 155.291 42.2822 155.291 40.9355C155.291 39.6162 156.262 38.8574 157.978 38.7549L160.104 38.625V37.9551C160.104 37.0459 159.536 36.5469 158.436 36.5469C157.554 36.5469 156.938 36.8818 156.774 37.4629H155.585C155.742 36.2803 156.904 35.501 158.477 35.501C160.274 35.501 161.279 36.4238 161.279 37.9551V43H160.158V41.9131H160.049C159.57 42.6992 158.764 43.1299 157.779 43.1299ZM167.117 43.1299C166.092 43.1299 165.217 42.6445 164.752 41.8242H164.643V43H163.521V32.7051H164.697V36.793H164.807C165.21 36 166.105 35.501 167.117 35.501C168.99 35.501 170.207 36.998 170.207 39.3154C170.207 41.6191 168.983 43.1299 167.117 43.1299ZM166.844 36.5605C165.504 36.5605 164.67 37.6133 164.67 39.3154C164.67 41.0176 165.504 42.0703 166.844 42.0703C168.19 42.0703 168.99 41.0381 168.99 39.3154C168.99 37.5928 168.19 36.5605 166.844 36.5605ZM172.121 43V32.7051H173.297V43H172.121ZM178.52 36.54C177.344 36.54 176.523 37.4014 176.435 38.707H180.495C180.468 37.4014 179.688 36.54 178.52 36.54ZM180.461 41.0928H181.637C181.281 42.3574 180.146 43.1299 178.533 43.1299C176.489 43.1299 175.211 41.6533 175.211 39.3223C175.211 37.0049 176.51 35.501 178.533 35.501C180.522 35.501 181.732 36.916 181.732 39.2061V39.6572H176.435V39.7119C176.496 41.168 177.31 42.0908 178.561 42.0908C179.511 42.0908 180.153 41.7422 180.461 41.0928ZM184.07 33.7236H185.246V35.6309H186.887V36.6152H185.246V40.7852C185.246 41.6533 185.574 42.0225 186.34 42.0225C186.552 42.0225 186.668 42.0156 186.887 41.9951V42.9863C186.654 43.0273 186.429 43.0547 186.196 43.0547C184.679 43.0547 184.07 42.4941 184.07 41.0859V36.6152H182.881V35.6309H184.07V33.7236ZM189.409 45.5088H188.527L189.177 41.6191H190.482L189.409 45.5088ZM206.643 43H205.494V35.4668H205.412L202.302 42.9316H201.263L198.152 35.4668H198.07V43H196.922V33.1357H198.351L201.728 41.2979H201.837L205.214 33.1357H206.643V43ZM212.036 43.1299C209.938 43.1299 208.639 41.6807 208.639 39.3154C208.639 36.9434 209.938 35.501 212.036 35.501C214.135 35.501 215.434 36.9434 215.434 39.3154C215.434 41.6807 214.135 43.1299 212.036 43.1299ZM212.036 42.0703C213.431 42.0703 214.217 41.0586 214.217 39.3154C214.217 37.5654 213.431 36.5605 212.036 36.5605C210.642 36.5605 209.855 37.5654 209.855 39.3154C209.855 41.0586 210.642 42.0703 212.036 42.0703ZM220.943 43.1299C219.918 43.1299 219.043 42.6445 218.578 41.8242H218.469V43H217.348V32.7051H218.523V36.793H218.633C219.036 36 219.932 35.501 220.943 35.501C222.816 35.501 224.033 36.998 224.033 39.3154C224.033 41.6191 222.81 43.1299 220.943 43.1299ZM220.67 36.5605C219.33 36.5605 218.496 37.6133 218.496 39.3154C218.496 41.0176 219.33 42.0703 220.67 42.0703C222.017 42.0703 222.816 41.0381 222.816 39.3154C222.816 37.5928 222.017 36.5605 220.67 36.5605ZM225.906 43V35.6309H227.082V43H225.906ZM226.494 34.1338C226.043 34.1338 225.674 33.7646 225.674 33.3135C225.674 32.8623 226.043 32.4932 226.494 32.4932C226.945 32.4932 227.314 32.8623 227.314 33.3135C227.314 33.7646 226.945 34.1338 226.494 34.1338ZM229.393 43V32.7051H230.568V43H229.393ZM235.791 36.54C234.615 36.54 233.795 37.4014 233.706 38.707H237.767C237.739 37.4014 236.96 36.54 235.791 36.54ZM237.732 41.0928H238.908C238.553 42.3574 237.418 43.1299 235.805 43.1299C233.761 43.1299 232.482 41.6533 232.482 39.3223C232.482 37.0049 233.781 35.501 235.805 35.501C237.794 35.501 239.004 36.916 239.004 39.2061V39.6572H233.706V39.7119C233.768 41.168 234.581 42.0908 235.832 42.0908C236.782 42.0908 237.425 41.7422 237.732 41.0928Z" fill="#5C5F62"/>
</svg>