<svg width="14" height="14" viewBox="0 0 14 14" fill="none" xmlns="http://www.w3.org/2000/svg">
<path fill-rule="evenodd" clip-rule="evenodd" d="M5.75 0.5C4.31198 0.5 3.13175 1.60376 3.0103 3.0103C1.60376 3.13175 0.5 4.31198 0.5 5.75V10.75C0.5 12.2688 1.73122 13.5 3.25 13.5H8.25C9.68802 13.5 10.8682 12.3962 10.9897 10.9897C12.3962 10.8683 13.5 9.68802 13.5 8.25V3.25C13.5 1.73122 12.2688 0.5 10.75 0.5H5.75ZM8.25 3H4.525C4.64082 2.42944 5.14526 2 5.75 2H10.75C11.4404 2 12 2.55964 12 3.25V8.25C12 8.85474 11.5706 9.35918 11 9.475V5.75C11 4.23122 9.76878 3 8.25 3ZM3.25 4.5C2.55964 4.5 2 5.05964 2 5.75V10.75C2 11.4404 2.55964 12 3.25 12H8.25C8.94036 12 9.5 11.4404 9.5 10.75V5.75C9.5 5.05964 8.94036 4.5 8.25 4.5H3.25Z" fill="#4A4A4A"/>
</svg>
