<?xml version="1.0" encoding="utf-8"?>
<!-- Generator: Adobe Illustrator 24.2.0, SVG Export Plug-In . SVG Version: 6.00 Build 0)  -->
<svg version="1.1" id="Layer_1" xmlns="http://www.w3.org/2000/svg" xmlns:xlink="http://www.w3.org/1999/xlink" x="0px" y="0px"
	 viewBox="0 0 3153 865" style="enable-background:new 0 0 3153 865;" xml:space="preserve">
<style type="text/css">
	.st0{fill:#FFFFFF;}
	.st1{fill:#FF9800;}
</style>
<g>
	<g>
		<circle class="st0" cx="435" cy="433" r="363.91"/>
	</g>
	<g>
		<path class="st1" d="M470.27,589.19H298.25c-39.2,0-70.98-31.78-70.98-70.98V346.2c0-39.2,31.78-70.98,70.98-70.98h172.01
			c39.2,0,70.98,31.78,70.98,70.98v172.01C541.24,557.41,509.46,589.19,470.27,589.19z"/>
		<path class="st1" d="M645.89,308.6v246.42c0,9.42-10.35,15.19-18.36,10.23l-131.29-81.28c-4.38-2.71-6.55-7.91-5.39-12.93
			l19.47-84.38c0.65-2.84,2.32-5.34,4.68-7.05l111.82-80.76C634.78,293.11,645.89,298.79,645.89,308.6z"/>
		<g>
			<circle class="st0" cx="383.19" cy="431.41" r="55.77"/>
		</g>
	</g>
	<g>
		<g>
			<path class="st0" d="M941.77,401.91c-0.9-0.9-1.35-2.07-1.35-3.51V219.12c0-1.44,0.45-2.61,1.35-3.51
				c0.9-0.9,2.07-1.35,3.51-1.35h34.83c2.52,0,4.41,1.08,5.67,3.24l35.91,58.05c0.9,1.26,1.8,1.26,2.7,0l36.18-58.05
				c1.26-2.16,3.15-3.24,5.67-3.24h34.83c1.44,0,2.61,0.45,3.51,1.35c0.9,0.9,1.35,2.07,1.35,3.51V398.4c0,1.44-0.45,2.61-1.35,3.51
				c-0.9,0.9-2.07,1.35-3.51,1.35h-35.1c-1.44,0-2.61-0.45-3.51-1.35c-0.9-0.9-1.35-2.07-1.35-3.51V292.83
				c0-0.9-0.27-1.44-0.81-1.62c-0.54-0.18-0.99,0.18-1.35,1.08l-21.87,35.64c-1.26,2.16-3.15,3.24-5.67,3.24h-16.47
				c-2.52,0-4.41-1.08-5.67-3.24l-21.87-35.64c-0.36-0.9-0.81-1.26-1.35-1.08c-0.54,0.18-0.81,0.72-0.81,1.62V398.4
				c0,1.44-0.45,2.61-1.35,3.51c-0.9,0.9-2.07,1.35-3.51,1.35h-35.1C943.84,403.26,942.67,402.81,941.77,401.91z"/>
		</g>
		<g>
			<path class="st0" d="M1134.01,401.91c-0.9-0.9-1.35-2.07-1.35-3.51V219.12c0-1.44,0.45-2.61,1.35-3.51
				c0.9-0.9,2.07-1.35,3.51-1.35h35.1c1.44,0,2.61,0.45,3.51,1.35c0.9,0.9,1.35,2.07,1.35,3.51V398.4c0,1.44-0.45,2.61-1.35,3.51
				c-0.9,0.9-2.07,1.35-3.51,1.35h-35.1C1136.08,403.26,1134.91,402.81,1134.01,401.91z"/>
		</g>
		<g>
			<path class="st0" d="M1205.56,401.91c-0.9-0.9-1.35-2.07-1.35-3.51V219.12c0-1.44,0.45-2.61,1.35-3.51
				c0.9-0.9,2.07-1.35,3.51-1.35h67.23c14.04,0,26.46,2.43,37.26,7.29s19.17,11.79,25.11,20.79c5.94,9,8.91,19.35,8.91,31.05v70.74
				c0,11.7-2.97,22.05-8.91,31.05c-5.94,9-14.31,15.93-25.11,20.79s-23.22,7.29-37.26,7.29h-67.23
				C1207.63,403.26,1206.46,402.81,1205.56,401.91z M1250.92,364.92h27.27c7.2,0,13.05-2.57,17.55-7.7
				c4.5-5.13,6.84-12.01,7.02-20.66v-55.62c0-8.64-2.3-15.53-6.89-20.66s-10.58-7.7-17.96-7.7h-27c-1.26,0-1.89,0.63-1.89,1.89
				v108.54C1249.03,364.29,1249.66,364.92,1250.92,364.92z"/>
		</g>
		<g>
			<path class="st0" d="M1478.8,399.21l-6.21-22.14c-0.18-1.08-0.9-1.62-2.16-1.62h-61.02c-1.08,0-1.8,0.54-2.16,1.62l-6.21,22.14
				c-0.72,2.7-2.52,4.05-5.4,4.05h-38.07c-1.8,0-3.06-0.49-3.78-1.49c-0.72-0.99-0.81-2.29-0.27-3.92l56.7-179.55
				c0.9-2.7,2.79-4.05,5.67-4.05h47.79c3.06,0,4.95,1.35,5.67,4.05l56.97,179.55c0.18,0.36,0.27,0.99,0.27,1.89
				c0,2.34-1.44,3.51-4.32,3.51h-38.07C1481.32,403.26,1479.52,401.91,1478.8,399.21z M1418.32,339.27c0,1.08,0.54,1.62,1.62,1.62
				h39.96c0.72,0,1.21-0.22,1.49-0.67c0.27-0.45,0.31-0.95,0.13-1.49L1441,266.91c-0.18-0.9-0.5-1.35-0.94-1.35
				c-0.45,0-0.86,0.45-1.21,1.35l-20.52,71.82V339.27z"/>
		</g>
		<g>
			<path class="st0" d="M1630.4,398.27c-10.89-4.77-19.3-11.61-25.25-20.52c-5.94-8.91-8.91-19.21-8.91-30.92v-3.51
				c0-1.44,0.45-2.61,1.35-3.51c0.9-0.9,2.07-1.35,3.51-1.35h34.29c1.44,0,2.61,0.32,3.51,0.94c0.9,0.63,1.35,1.4,1.35,2.3v3.24
				c0,5.76,2.92,10.89,8.77,15.39c5.85,4.5,13.37,6.75,22.54,6.75c7.92,0,13.77-1.71,17.55-5.13c3.78-3.42,5.67-7.38,5.67-11.88
				c0-5.04-2.21-8.91-6.61-11.61c-4.41-2.7-12.29-5.85-23.63-9.45l-5.94-1.89c-11.52-3.78-21.6-7.87-30.24-12.29
				c-8.64-4.41-16.02-10.53-22.14-18.36c-6.12-7.83-9.18-17.5-9.18-29.02c0-11.16,2.92-20.93,8.77-29.3
				c5.85-8.37,13.95-14.8,24.3-19.3c10.35-4.5,22.09-6.75,35.23-6.75c13.86,0,26.33,2.52,37.4,7.56
				c11.07,5.04,19.75,12.15,26.05,21.33c6.3,9.18,9.45,19.71,9.45,31.59v2.16c0,1.44-0.45,2.61-1.35,3.51
				c-0.9,0.9-2.07,1.35-3.51,1.35h-34.29c-1.44,0-2.61-0.22-3.51-0.67c-0.9-0.45-1.35-1.12-1.35-2.03v-2.43
				c0-6.3-2.79-11.88-8.37-16.74c-5.58-4.86-13.05-7.29-22.41-7.29c-7.02,0-12.51,1.44-16.47,4.32c-3.96,2.88-5.94,6.93-5.94,12.15
				c0,3.96,1.26,7.25,3.78,9.85c2.52,2.61,6.43,5.04,11.75,7.29c5.31,2.25,13.45,5.18,24.43,8.78c12.6,4.32,22.41,8.1,29.43,11.34
				c7.02,3.24,13.64,8.5,19.85,15.79s9.31,16.88,9.31,28.75c0,11.34-2.97,21.29-8.91,29.83c-5.94,8.55-14.31,15.17-25.11,19.84
				c-10.8,4.68-23.22,7.02-37.26,7.02C1653.93,405.42,1641.29,403.04,1630.4,398.27z"/>
		</g>
		<g>
			<path class="st0" d="M1845.31,364.79c4.77-1.71,8.78-4,12.02-6.89c1.08-1.26,2.25-1.89,3.51-1.89c1.08,0,2.16,0.63,3.24,1.89
				l16.74,19.98c1.08,1.26,1.62,2.43,1.62,3.51c0,1.26-0.54,2.43-1.62,3.51c-6.12,6.48-13.86,11.52-23.22,15.12
				c-9.36,3.6-19.35,5.4-29.97,5.4c-12.24,0-23.08-2.2-32.54-6.62c-9.45-4.41-17.24-10.57-23.35-18.5
				c-9.9-12.6-14.85-28.62-14.85-48.06c0-8.64,0.99-16.74,2.97-24.3c3.96-14.04,11.7-25.33,23.22-33.89
				c11.52-8.55,25.02-12.82,40.5-12.82c18,0,32.54,5.58,43.6,16.74c11.07,11.16,18.31,26.73,21.74,46.71
				c0.72,5.04,1.26,10.53,1.62,16.47c0,3.24-1.62,4.86-4.86,4.86h-81.54c-0.54,0-1.04,0.18-1.49,0.54c-0.45,0.36-0.59,0.9-0.4,1.62
				l1.62,5.4c1.8,4.32,4.95,7.69,9.45,10.13c4.5,2.43,9.99,3.64,16.47,3.64C1835.37,367.35,1840.54,366.5,1845.31,364.79z
				 M1804.14,313.08c-0.72,1.8-1.17,3.15-1.35,4.05v0.54c0,1.08,0.63,1.62,1.89,1.62h36.99c0.72,0,1.21-0.22,1.48-0.67
				c0.27-0.45,0.31-0.95,0.14-1.49l-1.08-3.51c-1.44-4.32-3.78-7.7-7.02-10.13c-3.24-2.43-7.38-3.65-12.42-3.65
				C1813.59,299.85,1807.38,304.26,1804.14,313.08z"/>
		</g>
		<g>
			<path class="st0" d="M1934.68,400.16c-9.45-3.51-16.74-8.46-21.87-14.85c-5.13-6.39-7.69-13.72-7.69-22v-1.35
				c0-1.44,0.45-2.61,1.35-3.51c0.9-0.9,2.07-1.35,3.51-1.35h33.21c3.24,0,4.86,0.54,4.86,1.62v1.62c0,3.42,1.84,6.26,5.54,8.5
				c3.69,2.25,8.41,3.38,14.17,3.38c5.04,0,9.09-0.85,12.15-2.57c3.06-1.71,4.59-4,4.59-6.88c0-2.88-1.62-5-4.86-6.34
				c-3.24-1.35-8.37-2.65-15.39-3.92c-11.34-2.16-20.52-4.77-27.54-7.83c-9-3.78-16.25-8.55-21.74-14.31
				c-5.49-5.76-8.23-13.5-8.23-23.22c0-14.04,5.44-25.15,16.33-33.34c10.89-8.19,25.25-12.29,43.07-12.29
				c12.06,0,22.63,1.94,31.72,5.8c9.09,3.87,16.15,9.32,21.2,16.33c5.04,7.02,7.56,15.12,7.56,24.3c0,0.9-0.45,1.67-1.35,2.29
				c-0.9,0.63-2.07,0.94-3.51,0.94h-32.13c-3.24,0-4.86-0.54-4.86-1.62v-1.62c0-3.42-1.62-6.21-4.86-8.37s-7.65-3.24-13.23-3.24
				c-5.04,0-9.14,0.86-12.29,2.56c-3.15,1.71-4.72,4.1-4.72,7.16c0,3.06,1.71,5.27,5.13,6.62c3.42,1.35,9.18,2.83,17.28,4.46
				c10.98,2.16,18.36,3.87,22.14,5.13c10.98,3.6,19.58,8.46,25.79,14.58c6.21,6.12,9.32,14.31,9.32,24.57
				c0,14.04-5.54,24.89-16.61,32.53c-11.07,7.65-25.97,11.48-44.68,11.48C1955.24,405.42,1944.13,403.67,1934.68,400.16z"/>
		</g>
		<g>
			<path class="st0" d="M2071.57,400.16c-9.45-3.51-16.74-8.46-21.87-14.85c-5.13-6.39-7.7-13.72-7.7-22v-1.35
				c0-1.44,0.45-2.61,1.35-3.51c0.9-0.9,2.07-1.35,3.51-1.35h33.21c3.24,0,4.86,0.54,4.86,1.62v1.62c0,3.42,1.84,6.26,5.53,8.5
				c3.69,2.25,8.41,3.38,14.17,3.38c5.04,0,9.09-0.85,12.15-2.57c3.06-1.71,4.59-4,4.59-6.88c0-2.88-1.62-5-4.86-6.34
				c-3.24-1.35-8.37-2.65-15.39-3.92c-11.34-2.16-20.52-4.77-27.54-7.83c-9-3.78-16.25-8.55-21.73-14.31
				c-5.49-5.76-8.24-13.5-8.24-23.22c0-14.04,5.44-25.15,16.33-33.34c10.89-8.19,25.25-12.29,43.07-12.29
				c12.06,0,22.63,1.94,31.72,5.8c9.09,3.87,16.15,9.32,21.2,16.33c5.04,7.02,7.56,15.12,7.56,24.3c0,0.9-0.45,1.67-1.35,2.29
				c-0.9,0.63-2.07,0.94-3.51,0.94h-32.13c-3.24,0-4.86-0.54-4.86-1.62v-1.62c0-3.42-1.62-6.21-4.86-8.37s-7.65-3.24-13.23-3.24
				c-5.04,0-9.14,0.86-12.28,2.56c-3.15,1.71-4.73,4.1-4.73,7.16c0,3.06,1.71,5.27,5.13,6.62c3.42,1.35,9.18,2.83,17.28,4.46
				c10.98,2.16,18.36,3.87,22.14,5.13c10.98,3.6,19.57,8.46,25.79,14.58c6.21,6.12,9.31,14.31,9.31,24.57
				c0,14.04-5.54,24.89-16.61,32.53c-11.07,7.65-25.97,11.48-44.68,11.48C2092.13,405.42,2081.02,403.67,2071.57,400.16z"/>
		</g>
		<g>
			<path class="st0" d="M2188.88,247.34c-4.86-4.77-7.29-11.02-7.29-18.77c0-7.56,2.43-13.68,7.29-18.36
				c4.86-4.68,11.25-7.02,19.17-7.02c7.92,0,14.31,2.34,19.17,7.02c4.86,4.68,7.29,10.8,7.29,18.36c0,7.74-2.43,14-7.29,18.77
				c-4.86,4.77-11.25,7.16-19.17,7.16C2200.13,254.49,2193.74,252.11,2188.88,247.34z M2186.99,401.91c-0.9-0.9-1.35-2.07-1.35-3.51
				V268.53c0-1.44,0.45-2.61,1.35-3.51c0.9-0.9,2.07-1.35,3.51-1.35h35.1c1.44,0,2.61,0.45,3.51,1.35c0.9,0.9,1.35,2.07,1.35,3.51
				V398.4c0,1.44-0.45,2.61-1.35,3.51c-0.9,0.9-2.07,1.35-3.51,1.35h-35.1C2189.06,403.26,2187.89,402.81,2186.99,401.91z"/>
		</g>
		<g>
			<path class="st0" d="M2277.84,392.46c-11.25-8.64-18.86-20.34-22.81-35.1c-2.16-7.38-3.24-15.48-3.24-24.3
				c0-9,1.17-17.73,3.51-26.19c4.14-14.22,11.83-25.33,23.09-33.35c11.25-8.01,24.88-12.01,40.9-12.01
				c15.84,0,29.25,4.01,40.23,12.01c10.98,8.01,18.63,19.04,22.95,33.08c2.52,8.1,3.78,16.74,3.78,25.92
				c0,8.28-0.99,16.2-2.97,23.76c-3.78,15.12-11.34,27.09-22.68,35.91c-11.34,8.82-25.2,13.23-41.58,13.23
				C2302.82,405.42,2289.09,401.1,2277.84,392.46z M2332.11,362.09c3.51-3.33,5.98-7.87,7.42-13.63c1.08-4.68,1.62-9.81,1.62-15.39
				c0-5.4-0.63-10.62-1.89-15.66c-1.44-5.58-3.87-9.9-7.29-12.96c-3.42-3.06-7.74-4.59-12.96-4.59c-5.4,0-9.77,1.53-13.1,4.59
				c-3.33,3.06-5.72,7.38-7.15,12.96c-1.26,3.96-1.89,9.18-1.89,15.66c0,5.58,0.54,10.71,1.62,15.39
				c1.62,5.76,4.14,10.31,7.56,13.63c3.42,3.33,7.74,5,12.96,5C2324.24,367.08,2328.6,365.42,2332.11,362.09z"/>
		</g>
		<g>
			<path class="st0" d="M2518.95,274.88c8.91,8.91,13.36,21.02,13.36,36.31v87.21c0,1.44-0.45,2.61-1.35,3.51
				c-0.9,0.9-2.07,1.35-3.51,1.35h-35.1c-1.44,0-2.61-0.45-3.51-1.35c-0.9-0.9-1.35-2.07-1.35-3.51v-77.49c0-6.3-1.67-11.38-5-15.26
				c-3.33-3.87-7.79-5.8-13.37-5.8c-5.58,0-10.08,1.94-13.5,5.8c-3.42,3.87-5.13,8.96-5.13,15.26v77.49c0,1.44-0.45,2.61-1.35,3.51
				c-0.9,0.9-2.07,1.35-3.51,1.35h-35.1c-1.44,0-2.61-0.45-3.51-1.35c-0.9-0.9-1.35-2.07-1.35-3.51V268.53
				c0-1.44,0.45-2.61,1.35-3.51c0.9-0.9,2.07-1.35,3.51-1.35h35.1c1.44,0,2.61,0.45,3.51,1.35c0.9,0.9,1.35,2.07,1.35,3.51v7.56
				c0,0.9,0.22,1.44,0.67,1.62c0.45,0.18,0.85-0.09,1.21-0.81c7.38-10.26,18.09-15.39,32.13-15.39
				C2498.57,261.51,2510.04,265.97,2518.95,274.88z"/>
		</g>
		<g>
			<path class="st0" d="M1037.08,659.48l-31.32-70.2c-0.36-0.9-1.08-1.35-2.16-1.35h-16.74c-1.26,0-1.89,0.63-1.89,1.89v68.58
				c0,1.44-0.45,2.61-1.35,3.51c-0.9,0.9-2.07,1.35-3.51,1.35h-35.1c-1.44,0-2.61-0.45-3.51-1.35c-0.9-0.9-1.35-2.07-1.35-3.51
				V479.12c0-1.44,0.45-2.61,1.35-3.51c0.9-0.9,2.07-1.35,3.51-1.35h78.57c11.88,0,22.32,2.43,31.32,7.29
				c9,4.86,15.97,11.75,20.92,20.66c4.95,8.91,7.42,19.13,7.42,30.64c0,11.88-2.93,22.23-8.77,31.05
				c-5.85,8.82-14,15.21-24.44,19.17c-1.26,0.54-1.62,1.44-1.08,2.7l34.56,71.82l0.54,2.16c0,2.34-1.44,3.51-4.32,3.51h-36.99
				C1040.05,663.26,1038.16,662,1037.08,659.48z M984.97,514.49v37.26c0,1.26,0.63,1.89,1.89,1.89h29.43
				c6.66,0,12.06-1.84,16.2-5.54c4.14-3.69,6.21-8.59,6.21-14.71c0-6.3-2.07-11.34-6.21-15.12c-4.14-3.78-9.54-5.67-16.2-5.67
				h-29.43C985.6,512.6,984.97,513.23,984.97,514.49z"/>
		</g>
		<g>
			<path class="st0" d="M1187.34,624.79c4.77-1.71,8.78-4,12.02-6.89c1.08-1.26,2.25-1.89,3.51-1.89c1.08,0,2.16,0.63,3.24,1.89
				l16.74,19.98c1.08,1.26,1.62,2.43,1.62,3.51c0,1.26-0.54,2.43-1.62,3.51c-6.12,6.48-13.86,11.52-23.22,15.12
				c-9.36,3.6-19.35,5.4-29.97,5.4c-12.24,0-23.08-2.2-32.54-6.62c-9.45-4.41-17.24-10.57-23.35-18.5
				c-9.9-12.6-14.85-28.62-14.85-48.06c0-8.64,0.99-16.74,2.97-24.3c3.96-14.04,11.7-25.33,23.22-33.89
				c11.52-8.55,25.02-12.82,40.5-12.82c18,0,32.54,5.58,43.6,16.74c11.07,11.16,18.31,26.73,21.74,46.71
				c0.72,5.04,1.26,10.53,1.62,16.47c0,3.24-1.62,4.86-4.86,4.86h-81.54c-0.54,0-1.04,0.18-1.49,0.54c-0.45,0.36-0.59,0.9-0.4,1.62
				l1.62,5.4c1.8,4.32,4.95,7.69,9.45,10.13c4.5,2.43,9.99,3.64,16.47,3.64C1177.39,627.35,1182.57,626.5,1187.34,624.79z
				 M1146.16,573.08c-0.72,1.8-1.17,3.15-1.35,4.05v0.54c0,1.08,0.63,1.62,1.89,1.62h36.99c0.72,0,1.21-0.22,1.48-0.67
				c0.27-0.45,0.31-0.95,0.14-1.49l-1.08-3.51c-1.44-4.32-3.78-7.7-7.02-10.13c-3.24-2.43-7.38-3.65-12.42-3.65
				C1155.61,559.85,1149.4,564.26,1146.16,573.08z"/>
		</g>
		<g>
			<path class="st0" d="M1276.16,654.35c-11.07-7.38-18.95-17.55-23.63-30.51c-3.42-8.64-5.13-18.99-5.13-31.05
				c0-12.06,1.71-22.41,5.13-31.05c4.5-12.6,12.33-22.45,23.49-29.57c11.16-7.11,24.12-10.67,38.88-10.67
				c14.94,0,28.08,3.69,39.42,11.07c11.34,7.38,18.99,16.74,22.95,28.08c1.08,2.88,1.8,5.85,2.16,8.91v1.08
				c0,2.34-1.44,3.78-4.32,4.32l-34.29,5.13l-1.35,0.27c-2.34,0-3.69-1.08-4.05-3.24l-1.08-3.78c-1.08-3.96-3.42-7.2-7.02-9.72
				c-3.6-2.52-7.83-3.78-12.69-3.78c-9.54,0-15.84,4.23-18.9,12.69c-1.98,5.04-2.97,11.88-2.97,20.52c0,7.74,0.9,14.49,2.7,20.25
				c3.42,9.18,9.81,13.77,19.17,13.77c4.68,0,8.68-1.17,12.01-3.51c3.33-2.34,5.8-5.76,7.43-10.26l0.27-1.35
				c0.18-0.9,0.85-1.84,2.03-2.83c1.17-0.99,2.38-1.39,3.64-1.21l34.56,5.4c3.24,0.54,4.59,2.34,4.05,5.4
				c-0.36,2.88-0.81,5.13-1.35,6.75c-4.32,12.6-12.11,22.41-23.35,29.43c-11.25,7.02-24.26,10.53-39.01,10.53
				C1300.15,665.42,1287.23,661.73,1276.16,654.35z"/>
		</g>
		<g>
			<path class="st0" d="M1418.18,652.46c-11.25-8.64-18.86-20.34-22.82-35.1c-2.16-7.38-3.24-15.48-3.24-24.3
				c0-9,1.17-17.73,3.51-26.19c4.14-14.22,11.83-25.33,23.08-33.35c11.25-8.01,24.88-12.01,40.91-12.01
				c15.84,0,29.25,4.01,40.23,12.01c10.98,8.01,18.63,19.04,22.95,33.08c2.52,8.1,3.78,16.74,3.78,25.92
				c0,8.28-0.99,16.2-2.97,23.76c-3.78,15.12-11.34,27.09-22.68,35.91c-11.34,8.82-25.2,13.23-41.58,13.23
				C1443.16,665.42,1429.43,661.1,1418.18,652.46z M1472.45,622.09c3.51-3.33,5.98-7.87,7.43-13.63c1.08-4.68,1.62-9.81,1.62-15.39
				c0-5.4-0.63-10.62-1.89-15.66c-1.44-5.58-3.87-9.9-7.29-12.96c-3.42-3.06-7.74-4.59-12.96-4.59c-5.4,0-9.77,1.53-13.09,4.59
				c-3.33,3.06-5.72,7.38-7.16,12.96c-1.26,3.96-1.89,9.18-1.89,15.66c0,5.58,0.54,10.71,1.62,15.39
				c1.62,5.76,4.14,10.31,7.56,13.63c3.42,3.33,7.74,5,12.96,5C1464.58,627.08,1468.94,625.42,1472.45,622.09z"/>
		</g>
		<g>
			<path class="st0" d="M1634.32,524.75c2.34,1.26,3.24,3.24,2.7,5.94l-5.94,34.56c-0.18,2.34-1.35,3.51-3.51,3.51
				c-0.9,0-1.62-0.09-2.16-0.27c-2.16-0.54-4.86-0.81-8.1-0.81c-2.88,0-5.04,0.18-6.48,0.54c-5.58,0.72-10.31,2.88-14.17,6.48
				c-3.87,3.6-5.81,8.37-5.81,14.31v69.39c0,1.44-0.45,2.61-1.35,3.51c-0.9,0.9-2.07,1.35-3.51,1.35h-35.1
				c-1.44,0-2.61-0.45-3.51-1.35c-0.9-0.9-1.35-2.07-1.35-3.51V528.53c0-1.44,0.45-2.61,1.35-3.51c0.9-0.9,2.07-1.35,3.51-1.35h35.1
				c1.44,0,2.61,0.45,3.51,1.35c0.9,0.9,1.35,2.07,1.35,3.51v5.94c0,0.9,0.22,1.44,0.68,1.62c0.45,0.18,0.85-0.09,1.21-0.81
				c7.2-9,16.38-13.5,27.54-13.5C1626.04,521.78,1630.71,522.77,1634.32,524.75z"/>
		</g>
		<g>
			<path class="st0" d="M1729.09,475.61c0.9-0.9,2.07-1.35,3.51-1.35h35.1c1.44,0,2.61,0.45,3.51,1.35c0.9,0.9,1.35,2.07,1.35,3.51
				V658.4c0,1.44-0.45,2.61-1.35,3.51c-0.9,0.9-2.07,1.35-3.51,1.35h-35.1c-1.44,0-2.61-0.45-3.51-1.35
				c-0.9-0.9-1.35-2.07-1.35-3.51v-6.48c0-0.9-0.23-1.44-0.68-1.62c-0.45-0.18-0.95,0.09-1.48,0.81
				c-6.84,9.54-17.1,14.31-30.78,14.31c-11.7,0-22.5-3.87-32.4-11.61c-9.9-7.74-16.65-17.73-20.25-29.97
				c-2.88-8.82-4.32-19.17-4.32-31.05c0-12.78,1.89-24.12,5.67-34.02c4.14-11.16,10.84-20.2,20.12-27.13
				c9.27-6.93,19.66-10.39,31.18-10.39c13.68,0,23.94,4.14,30.78,12.42c0.54,0.72,1.03,0.99,1.48,0.81
				c0.45-0.18,0.68-0.72,0.68-1.62v-53.73C1727.74,477.68,1728.19,476.51,1729.09,475.61z M1727.47,593.6
				c0-9.9-1.62-17.82-4.86-23.76c-3.78-6.12-9-9.18-15.66-9.18c-7.02,0-12.42,3.15-16.2,9.45c-3.24,5.94-4.86,13.77-4.86,23.49
				c0,9.18,1.53,16.65,4.59,22.41c3.78,6.66,9.27,9.99,16.47,9.99c6.84,0,12.15-3.42,15.93-10.26
				C1725.94,609.98,1727.47,602.6,1727.47,593.6z"/>
		</g>
		<g>
			<path class="st0" d="M1801.18,507.34c-4.86-4.77-7.29-11.02-7.29-18.77c0-7.56,2.43-13.68,7.29-18.36
				c4.86-4.68,11.25-7.02,19.17-7.02c7.92,0,14.31,2.34,19.17,7.02c4.86,4.68,7.29,10.8,7.29,18.36c0,7.74-2.43,14-7.29,18.77
				c-4.86,4.77-11.25,7.16-19.17,7.16C1812.43,514.49,1806.04,512.11,1801.18,507.34z M1799.29,661.91c-0.9-0.9-1.35-2.07-1.35-3.51
				V528.53c0-1.44,0.45-2.61,1.35-3.51c0.9-0.9,2.07-1.35,3.51-1.35h35.1c1.44,0,2.61,0.45,3.51,1.35c0.9,0.9,1.35,2.07,1.35,3.51
				V658.4c0,1.44-0.45,2.61-1.35,3.51c-0.9,0.9-2.07,1.35-3.51,1.35h-35.1C1801.36,663.26,1800.19,662.81,1799.29,661.91z"/>
		</g>
		<g>
			<path class="st0" d="M1980.59,534.88c8.91,8.91,13.37,21.02,13.37,36.31v87.21c0,1.44-0.45,2.61-1.35,3.51
				c-0.9,0.9-2.07,1.35-3.51,1.35H1954c-1.44,0-2.61-0.45-3.51-1.35c-0.9-0.9-1.35-2.07-1.35-3.51v-77.49c0-6.3-1.67-11.38-5-15.26
				c-3.33-3.87-7.79-5.8-13.37-5.8c-5.58,0-10.08,1.94-13.5,5.8c-3.42,3.87-5.13,8.96-5.13,15.26v77.49c0,1.44-0.45,2.61-1.35,3.51
				c-0.9,0.9-2.07,1.35-3.51,1.35h-35.1c-1.44,0-2.61-0.45-3.51-1.35c-0.9-0.9-1.35-2.07-1.35-3.51V528.53
				c0-1.44,0.45-2.61,1.35-3.51c0.9-0.9,2.07-1.35,3.51-1.35h35.1c1.44,0,2.61,0.45,3.51,1.35c0.9,0.9,1.35,2.07,1.35,3.51v7.56
				c0,0.9,0.22,1.44,0.67,1.62c0.45,0.18,0.85-0.09,1.22-0.81c7.38-10.26,18.09-15.39,32.13-15.39
				C1960.21,521.51,1971.68,525.97,1980.59,534.88z"/>
		</g>
		<g>
			<path class="st0" d="M2101.96,525.02c0.9-0.9,2.07-1.35,3.51-1.35h35.1c1.44,0,2.61,0.45,3.51,1.35c0.9,0.9,1.35,2.07,1.35,3.51
				V647.6c0,24.66-7.16,42.3-21.46,52.92c-14.31,10.62-32.27,15.93-53.87,15.93c-6.84,0-14.85-0.63-24.03-1.89
				c-3.06-0.54-4.5-2.34-4.32-5.4l1.35-29.97c0.18-3.42,2.07-4.86,5.67-4.32c7.2,1.44,13.5,2.16,18.9,2.16
				c10.26,0,18.31-2.34,24.17-7.02c5.85-4.68,8.78-12.06,8.78-22.14l-2.97,2.7c-6.3,5.94-15.3,8.91-27,8.91
				c-11.88,0-22.77-2.61-32.67-7.83c-9.9-5.22-17.01-14.4-21.33-27.54c-2.88-8.64-4.32-19.26-4.32-31.86
				c0-13.86,1.71-25.2,5.13-34.02c4.14-11.16,10.75-20.07,19.84-26.73c9.09-6.66,19.66-9.99,31.73-9.99
				c12.6,0,22.41,3.69,29.43,11.07c0.54,0.72,1.03,0.99,1.49,0.81c0.45-0.18,0.67-0.72,0.67-1.62v-3.24
				C2100.61,527.09,2101.05,525.92,2101.96,525.02z M2100.61,591.98c0-4.86-0.18-8.68-0.54-11.47c-0.36-2.79-1.08-5.44-2.16-7.96
				c-1.44-3.96-3.74-7.06-6.88-9.32c-3.15-2.25-6.98-3.38-11.48-3.38c-8.46,0-14.49,4.23-18.09,12.69
				c-2.7,5.04-4.05,11.7-4.05,19.98c0,8.82,1.17,15.3,3.51,19.44c1.62,3.78,4.05,6.84,7.29,9.18c3.24,2.34,7.11,3.51,11.61,3.51
				c9.18,0,15.3-4.14,18.36-12.42C2099.79,608.09,2100.61,601.34,2100.61,591.98z"/>
		</g>
		<g>
			<path class="st0" d="M2320.65,659.48l-31.32-70.2c-0.36-0.9-1.08-1.35-2.16-1.35h-16.74c-1.26,0-1.89,0.63-1.89,1.89v68.58
				c0,1.44-0.45,2.61-1.35,3.51c-0.9,0.9-2.07,1.35-3.51,1.35h-35.1c-1.44,0-2.61-0.45-3.51-1.35c-0.9-0.9-1.35-2.07-1.35-3.51
				V479.12c0-1.44,0.45-2.61,1.35-3.51c0.9-0.9,2.07-1.35,3.51-1.35h78.57c11.88,0,22.32,2.43,31.32,7.29
				c9,4.86,15.97,11.75,20.93,20.66c4.95,8.91,7.42,19.13,7.42,30.64c0,11.88-2.93,22.23-8.78,31.05
				c-5.85,8.82-14,15.21-24.43,19.17c-1.26,0.54-1.62,1.44-1.08,2.7l34.56,71.82l0.54,2.16c0,2.34-1.44,3.51-4.32,3.51h-36.99
				C2323.62,663.26,2321.73,662,2320.65,659.48z M2268.54,514.49v37.26c0,1.26,0.63,1.89,1.89,1.89h29.43
				c6.66,0,12.06-1.84,16.2-5.54c4.14-3.69,6.21-8.59,6.21-14.71c0-6.3-2.07-11.34-6.21-15.12c-4.14-3.78-9.54-5.67-16.2-5.67
				h-29.43C2269.17,512.6,2268.54,513.23,2268.54,514.49z"/>
		</g>
		<g>
			<path class="st0" d="M2470.91,624.79c4.77-1.71,8.78-4,12.01-6.89c1.08-1.26,2.25-1.89,3.51-1.89c1.08,0,2.16,0.63,3.24,1.89
				l16.74,19.98c1.08,1.26,1.62,2.43,1.62,3.51c0,1.26-0.54,2.43-1.62,3.51c-6.12,6.48-13.86,11.52-23.22,15.12
				c-9.36,3.6-19.35,5.4-29.97,5.4c-12.24,0-23.09-2.2-32.54-6.62c-9.45-4.41-17.24-10.57-23.36-18.5
				c-9.9-12.6-14.85-28.62-14.85-48.06c0-8.64,0.99-16.74,2.97-24.3c3.96-14.04,11.7-25.33,23.22-33.89
				c11.52-8.55,25.02-12.82,40.5-12.82c18,0,32.54,5.58,43.61,16.74c11.07,11.16,18.31,26.73,21.73,46.71
				c0.72,5.04,1.26,10.53,1.62,16.47c0,3.24-1.62,4.86-4.86,4.86h-81.54c-0.54,0-1.04,0.18-1.49,0.54c-0.45,0.36-0.59,0.9-0.41,1.62
				l1.62,5.4c1.8,4.32,4.95,7.69,9.45,10.13c4.5,2.43,9.99,3.64,16.47,3.64C2460.96,627.35,2466.14,626.5,2470.91,624.79z
				 M2429.73,573.08c-0.72,1.8-1.17,3.15-1.35,4.05v0.54c0,1.08,0.63,1.62,1.89,1.62h36.99c0.72,0,1.22-0.22,1.49-0.67
				c0.27-0.45,0.31-0.95,0.14-1.49l-1.08-3.51c-1.44-4.32-3.78-7.7-7.02-10.13c-3.24-2.43-7.38-3.65-12.42-3.65
				C2439.18,559.85,2432.97,564.26,2429.73,573.08z"/>
		</g>
		<g>
			<path class="st0" d="M2669.76,594.14c0,12.78-1.89,24.12-5.67,34.02c-4.14,11.16-10.85,20.21-20.12,27.13
				c-9.27,6.93-19.67,10.39-31.18,10.39c-13.68,0-23.94-4.14-30.78-12.42c-0.54-0.72-1.04-0.99-1.49-0.81
				c-0.45,0.18-0.67,0.72-0.67,1.62v53.73c0,1.44-0.45,2.61-1.35,3.51c-0.9,0.9-2.07,1.35-3.51,1.35h-35.1
				c-1.44,0-2.61-0.45-3.51-1.35c-0.9-0.9-1.35-2.07-1.35-3.51V528.53c0-1.44,0.45-2.61,1.35-3.51c0.9-0.9,2.07-1.35,3.51-1.35h35.1
				c1.44,0,2.61,0.45,3.51,1.35c0.9,0.9,1.35,2.07,1.35,3.51v6.48c0,0.9,0.22,1.44,0.67,1.62c0.45,0.18,0.95-0.09,1.49-0.81
				c6.84-9.54,17.1-14.31,30.78-14.31c11.7,0,22.5,3.87,32.4,11.61c9.9,7.74,16.65,17.73,20.25,29.97
				C2668.32,571.91,2669.76,582.26,2669.76,594.14z M2621.7,593.33c0-9.18-1.53-16.65-4.59-22.41c-3.78-6.66-9.27-9.99-16.47-9.99
				c-6.84,0-12.15,3.42-15.93,10.26c-3.06,5.76-4.59,13.14-4.59,22.14c0,9.9,1.62,17.82,4.86,23.76c3.78,6.12,9,9.18,15.66,9.18
				c7.02,0,12.42-3.15,16.2-9.45C2620.08,610.88,2621.7,603.05,2621.7,593.33z"/>
		</g>
		<g>
			<path class="st0" d="M2688.12,661.91c-0.9-0.9-1.35-2.07-1.35-3.51V479.12c0-1.44,0.45-2.61,1.35-3.51
				c0.9-0.9,2.07-1.35,3.51-1.35h35.1c1.44,0,2.61,0.45,3.51,1.35c0.9,0.9,1.35,2.07,1.35,3.51V658.4c0,1.44-0.45,2.61-1.35,3.51
				c-0.9,0.9-2.07,1.35-3.51,1.35h-35.1C2690.18,663.26,2689.02,662.81,2688.12,661.91z"/>
		</g>
		<g>
			<path class="st0" d="M2846.06,527.59c9.72,4.05,17.37,9.63,22.95,16.74c5.58,7.11,8.37,14.98,8.37,23.63v90.45
				c0,1.44-0.45,2.61-1.35,3.51c-0.9,0.9-2.07,1.35-3.51,1.35h-35.1c-1.44,0-2.61-0.45-3.51-1.35c-0.9-0.9-1.35-2.07-1.35-3.51V653
				c0-0.9-0.23-1.44-0.67-1.62c-0.45-0.18-0.95,0.09-1.49,0.81c-7.2,8.82-18.81,13.23-34.83,13.23c-14.22,0-25.56-3.38-34.02-10.13
				c-8.46-6.75-12.69-16.69-12.69-29.83c0-13.86,4.81-24.57,14.45-32.13c9.63-7.56,23.53-11.34,41.71-11.34h25.65
				c1.26,0,1.89-0.63,1.89-1.89v-4.59c0-4.86-1.58-8.68-4.72-11.47c-3.15-2.79-7.61-4.19-13.37-4.19c-4.14,0-7.7,0.67-10.67,2.03
				c-2.97,1.35-5.09,3.2-6.34,5.54c-0.9,1.26-1.75,2.21-2.57,2.83c-0.81,0.63-1.85,0.86-3.1,0.67l-36.18-4.59
				c-3.24-0.36-4.68-1.62-4.32-3.78c0.9-7.74,4.14-14.71,9.72-20.92c5.58-6.21,12.91-11.11,22-14.71c9.09-3.6,19.3-5.4,30.64-5.4
				C2825.54,521.51,2836.34,523.54,2846.06,527.59z M2825.95,628.03c4.41-3.51,6.62-8.14,6.62-13.9v-5.94
				c0-1.26-0.63-1.89-1.89-1.89h-15.66c-6.84,0-12.11,1.17-15.79,3.51c-3.69,2.34-5.54,5.85-5.54,10.53c0,3.96,1.35,7.11,4.05,9.45
				c2.7,2.34,6.48,3.51,11.34,3.51C2815.91,633.29,2821.54,631.54,2825.95,628.03z"/>
		</g>
		<g>
			<path class="st0" d="M2894.93,715.64c-0.36-0.9-0.54-2.07-0.54-3.51v-27c0-1.44,0.18-2.61,0.54-3.51
				c0.36-0.9,0.72-1.35,1.08-1.35h1.35c11.52,0,19.71-0.99,24.57-2.97c4.86-1.98,7.92-6.21,9.18-12.69c0.18-0.72,0.18-1.53,0-2.43
				l-42.66-133.11c-0.18-0.54-0.27-1.17-0.27-1.89c0-2.34,1.35-3.51,4.05-3.51h37.8c1.44,0,2.65,0.41,3.65,1.21
				c0.99,0.81,1.57,1.85,1.75,3.11l17.55,70.47c0.36,0.72,0.76,1.08,1.22,1.08c0.45,0,0.76-0.36,0.94-1.08l17.01-70.47
				c0.18-1.26,0.76-2.3,1.75-3.11c0.99-0.81,2.2-1.21,3.65-1.21h37.53c1.8,0,3.06,0.5,3.78,1.48c0.72,0.99,0.81,2.3,0.27,3.92
				l-44.82,136.89c-4.5,13.5-9.23,23.71-14.17,30.64c-4.95,6.93-12.15,12.06-21.6,15.39c-9.45,3.33-22.91,5-40.37,5h-1.89
				C2895.74,716.99,2895.29,716.54,2894.93,715.64z"/>
		</g>
	</g>
</g>
</svg>
